# xmcd
#
# Track frame offsets: 
#        150
#        57645
#        96504
#        114850
#        132092
#        165140
#        185895
#        217142
#        253445
#        285097
#        323282
#
# Disc length: 4611 seconds
#
# Revision: 0
# Processed by: cddbd v1.5.2PL0 Copyright (c) Steve Scherf et al.
# Submitted via: ExactAudioCopy v0.95b4
#
DISCID=9d12010b
DTITLE=Eric Clapton - Blue NBTB '94 (Another Source Disc2)
DYEAR=1994
DGENRE=Blues
TTITLE0=Early in the morning
TTITLE1=Everyday I have the blues
TTITLE2=Someday after a while
TTITLE3=I'm tore down
TTITLE4=Have you ever loved a woman
TTITLE5=Crosscut saw
TTITLE6=Black cat bone
TTITLE7=Five long years
TTITLE8=Crossroads blues
TTITLE9=Groanin' the blues
TTITLE10=Ain't nobody's business
EXTD=
EXTT0=
EXTT1=
EXTT2=
EXTT3=
EXTT4=
EXTT5=
EXTT6=
EXTT7=
EXTT8=
EXTT9=
EXTT10=
PLAYORDER=
